<mxfile host="app.diagrams.net" modified="2022-05-18T19:42:58.182Z" agent="5.0 (Windows NT 10.0; Win64; x64) AppleWebKit/537.36 (KHTML, like Gecko) Chrome/99.0.4844.84 Safari/537.36 OPR/85.0.4341.79" etag="IL1F51qiyGm4H3en3NXs" version="18.0.7" type="github">
  <diagram id="jv_QW0BuvOG6lZc9IcTr" name="Page-1">
    <mxGraphModel dx="1827" dy="1093" grid="1" gridSize="10" guides="1" tooltips="1" connect="1" arrows="1" fold="1" page="1" pageScale="1" pageWidth="10000" pageHeight="10000" math="0" shadow="0">
      <root>
        <mxCell id="0" />
        <mxCell id="1" parent="0" />
        <mxCell id="nstifC-4vc4W3v5sysxh-1" value="API" style="rounded=0;whiteSpace=wrap;html=1;fillColor=#0050ef;fontColor=#ffffff;strokeColor=#001DBC;" vertex="1" parent="1">
          <mxGeometry x="5000" y="5690" width="120" height="60" as="geometry" />
        </mxCell>
        <mxCell id="nstifC-4vc4W3v5sysxh-3" value="" style="endArrow=classic;html=1;rounded=0;exitX=1;exitY=1;exitDx=0;exitDy=0;entryX=0.5;entryY=0;entryDx=0;entryDy=0;" edge="1" parent="1" source="nstifC-4vc4W3v5sysxh-1" target="nstifC-4vc4W3v5sysxh-4">
          <mxGeometry width="50" height="50" relative="1" as="geometry">
            <mxPoint x="5140" y="5990" as="sourcePoint" />
            <mxPoint x="5060" y="5920" as="targetPoint" />
          </mxGeometry>
        </mxCell>
        <mxCell id="nstifC-4vc4W3v5sysxh-4" value="Маршрутизатор (админ)" style="rounded=0;whiteSpace=wrap;html=1;fillColor=#dae8fc;strokeColor=#6c8ebf;" vertex="1" parent="1">
          <mxGeometry x="5380" y="5920" width="120" height="60" as="geometry" />
        </mxCell>
        <mxCell id="nstifC-4vc4W3v5sysxh-5" value="Middleware&lt;br&gt;JWT check&lt;br&gt;Roles check" style="rounded=0;whiteSpace=wrap;html=1;fillColor=#fff2cc;strokeColor=#d6b656;" vertex="1" parent="1">
          <mxGeometry x="5700" y="5920" width="120" height="60" as="geometry" />
        </mxCell>
        <mxCell id="nstifC-4vc4W3v5sysxh-6" value="" style="endArrow=classic;html=1;rounded=0;exitX=1;exitY=0.5;exitDx=0;exitDy=0;entryX=0;entryY=0.5;entryDx=0;entryDy=0;" edge="1" parent="1" source="nstifC-4vc4W3v5sysxh-4" target="nstifC-4vc4W3v5sysxh-5">
          <mxGeometry width="50" height="50" relative="1" as="geometry">
            <mxPoint x="5110" y="5980" as="sourcePoint" />
            <mxPoint x="5160" y="5930" as="targetPoint" />
          </mxGeometry>
        </mxCell>
        <mxCell id="nstifC-4vc4W3v5sysxh-7" value="" style="endArrow=classic;html=1;rounded=0;exitX=0;exitY=1;exitDx=0;exitDy=0;entryX=0.5;entryY=0;entryDx=0;entryDy=0;" edge="1" parent="1" source="nstifC-4vc4W3v5sysxh-1" target="nstifC-4vc4W3v5sysxh-8">
          <mxGeometry width="50" height="50" relative="1" as="geometry">
            <mxPoint x="5100" y="5980" as="sourcePoint" />
            <mxPoint x="4920" y="5920" as="targetPoint" />
          </mxGeometry>
        </mxCell>
        <mxCell id="nstifC-4vc4W3v5sysxh-8" value="Маршрутизатор (пользователь)" style="rounded=0;whiteSpace=wrap;html=1;fillColor=#dae8fc;strokeColor=#6c8ebf;" vertex="1" parent="1">
          <mxGeometry x="4610" y="5920" width="120" height="60" as="geometry" />
        </mxCell>
        <mxCell id="nstifC-4vc4W3v5sysxh-10" value="Маршрутизатор (авторизация адм)" style="rounded=0;whiteSpace=wrap;html=1;fillColor=#dae8fc;strokeColor=#6c8ebf;" vertex="1" parent="1">
          <mxGeometry x="5000" y="5920" width="120" height="60" as="geometry" />
        </mxCell>
        <mxCell id="nstifC-4vc4W3v5sysxh-11" value="" style="endArrow=classic;html=1;rounded=0;exitX=0.5;exitY=1;exitDx=0;exitDy=0;entryX=0.5;entryY=0;entryDx=0;entryDy=0;" edge="1" parent="1" source="nstifC-4vc4W3v5sysxh-1" target="nstifC-4vc4W3v5sysxh-10">
          <mxGeometry width="50" height="50" relative="1" as="geometry">
            <mxPoint x="5080" y="6010" as="sourcePoint" />
            <mxPoint x="5130" y="5960" as="targetPoint" />
          </mxGeometry>
        </mxCell>
        <mxCell id="nstifC-4vc4W3v5sysxh-13" value="" style="endArrow=classic;html=1;rounded=0;exitX=0.5;exitY=1;exitDx=0;exitDy=0;entryX=0.5;entryY=0;entryDx=0;entryDy=0;" edge="1" parent="1" source="nstifC-4vc4W3v5sysxh-10">
          <mxGeometry width="50" height="50" relative="1" as="geometry">
            <mxPoint x="5070" y="6010" as="sourcePoint" />
            <mxPoint x="5060" y="6060" as="targetPoint" />
          </mxGeometry>
        </mxCell>
        <mxCell id="nstifC-4vc4W3v5sysxh-14" value="контроллер (авторизац.)" style="swimlane;fontStyle=0;childLayout=stackLayout;horizontal=1;startSize=30;horizontalStack=0;resizeParent=1;resizeParentMax=0;resizeLast=0;collapsible=1;marginBottom=0;fillColor=#6a00ff;strokeColor=#3700CC;fontColor=#ffffff;" vertex="1" parent="1">
          <mxGeometry x="4970" y="6060" width="180" height="120" as="geometry">
            <mxRectangle x="4990" y="6060" width="50" height="30" as="alternateBounds" />
          </mxGeometry>
        </mxCell>
        <mxCell id="nstifC-4vc4W3v5sysxh-16" value="проверка payload" style="text;strokeColor=#56517e;fillColor=#d0cee2;align=left;verticalAlign=middle;spacingLeft=4;spacingRight=4;overflow=hidden;points=[[0,0.5],[1,0.5]];portConstraint=eastwest;rotatable=0;" vertex="1" parent="nstifC-4vc4W3v5sysxh-14">
          <mxGeometry y="30" width="180" height="30" as="geometry" />
        </mxCell>
        <mxCell id="nstifC-4vc4W3v5sysxh-17" value="выдача access token" style="text;strokeColor=#56517e;fillColor=#d0cee2;align=left;verticalAlign=middle;spacingLeft=4;spacingRight=4;overflow=hidden;points=[[0,0.5],[1,0.5]];portConstraint=eastwest;rotatable=0;" vertex="1" parent="nstifC-4vc4W3v5sysxh-14">
          <mxGeometry y="60" width="180" height="30" as="geometry" />
        </mxCell>
        <mxCell id="nstifC-4vc4W3v5sysxh-18" value="выдача refresh token" style="text;strokeColor=#56517e;fillColor=#d0cee2;align=left;verticalAlign=middle;spacingLeft=4;spacingRight=4;overflow=hidden;points=[[0,0.5],[1,0.5]];portConstraint=eastwest;rotatable=0;" vertex="1" parent="nstifC-4vc4W3v5sysxh-14">
          <mxGeometry y="90" width="180" height="30" as="geometry" />
        </mxCell>
        <mxCell id="nstifC-4vc4W3v5sysxh-19" value="" style="sketch=0;outlineConnect=0;fontColor=#000000;fillColor=#fa6800;strokeColor=#C73500;dashed=0;verticalLabelPosition=bottom;verticalAlign=top;align=center;html=1;fontSize=12;fontStyle=0;aspect=fixed;pointerEvents=1;shape=mxgraph.aws4.rds_mysql_instance;" vertex="1" parent="1">
          <mxGeometry x="4982" y="6640" width="138" height="138" as="geometry" />
        </mxCell>
        <mxCell id="nstifC-4vc4W3v5sysxh-27" value="" style="edgeStyle=segmentEdgeStyle;endArrow=classic;html=1;rounded=0;fontSize=15;exitX=0;exitY=0.5;exitDx=0;exitDy=0;fillColor=#fa6800;strokeColor=#C73500;" edge="1" parent="1" source="nstifC-4vc4W3v5sysxh-16" target="nstifC-4vc4W3v5sysxh-19">
          <mxGeometry width="50" height="50" relative="1" as="geometry">
            <mxPoint x="5070" y="6420" as="sourcePoint" />
            <mxPoint x="5020" y="6630" as="targetPoint" />
            <Array as="points">
              <mxPoint x="4910" y="6105" />
              <mxPoint x="4910" y="6390" />
              <mxPoint x="5040" y="6390" />
            </Array>
          </mxGeometry>
        </mxCell>
        <mxCell id="nstifC-4vc4W3v5sysxh-29" value="find user" style="edgeLabel;html=1;align=center;verticalAlign=middle;resizable=0;points=[];fontSize=15;" vertex="1" connectable="0" parent="nstifC-4vc4W3v5sysxh-27">
          <mxGeometry x="-0.3447" y="1" relative="1" as="geometry">
            <mxPoint as="offset" />
          </mxGeometry>
        </mxCell>
        <mxCell id="nstifC-4vc4W3v5sysxh-28" value="" style="edgeStyle=segmentEdgeStyle;endArrow=classic;html=1;rounded=0;fontSize=15;fillColor=#60a917;strokeColor=#2D7600;" edge="1" parent="1" source="nstifC-4vc4W3v5sysxh-19" target="nstifC-4vc4W3v5sysxh-16">
          <mxGeometry width="50" height="50" relative="1" as="geometry">
            <mxPoint x="5080" y="6590" as="sourcePoint" />
            <mxPoint x="5160" y="6340" as="targetPoint" />
            <Array as="points">
              <mxPoint x="5100" y="6390" />
              <mxPoint x="5200" y="6390" />
              <mxPoint x="5200" y="6105" />
            </Array>
          </mxGeometry>
        </mxCell>
        <mxCell id="nstifC-4vc4W3v5sysxh-30" value="user data" style="edgeLabel;html=1;align=center;verticalAlign=middle;resizable=0;points=[];fontSize=15;fontColor=#4D9900;" vertex="1" connectable="0" parent="nstifC-4vc4W3v5sysxh-28">
          <mxGeometry x="0.3269" y="1" relative="1" as="geometry">
            <mxPoint as="offset" />
          </mxGeometry>
        </mxCell>
      </root>
    </mxGraphModel>
  </diagram>
</mxfile>
